:FULLY-SPECIFIED
:FORCE-ALL-JOINTS-BE-3DOF
:DEGREES
476
root 5.29565 16.3972 -6.73291 -132.829 51.029 -138.011
lfemur -26.6877 -15.1355 -19.049
ltibia 48.7767 0 0
lfoot -20.8832 -1.26421 0
ltoes 5.92118 0 0
rfemur -53.2852 0.526861 9.62981
rtibia 70.5228 0 0
rfoot 8.65999 2.74601 0
rtoes -1.62041 0 0
lowerback 7.52544 1.65989 -0.212575
upperback 1.12029 2.26176 1.35365
thorax -3.06245 1.16606 1.39917
lowerneck -8.43394 -7.75922 -0.486448
upperneck 9.09951 -10.4444 1.43539
head 4.43603 -5.07898 -0.313995
lclavicle -4.78719e-15 6.39429e-15 0
lhumerus -49.2708 -29.7376 113.722
lradius 55.234 0 0
lwrist 7.90417 0 0
lhand 2.24662 0.935526 0
lfingers 7.12502 0 0
lthumb 27.7038 28.5107 0
rclavicle -4.78719e-15 6.39429e-15 0
rhumerus -33.0484 39.7307 -85.0802
rradius 95.4653 0 0
rwrist 7.87467 0 0
rhand 6.72524 -12.5087 0
rfingers 7.12502 0 0
rthumb 31.9684 -759.276 0
477
root 5.31345 16.3969 -6.68471 -134.578 52.5107 -139.745
lfemur -26.6015 -15.3467 -19.2079
ltibia 48.8703 0 0
lfoot -21.0762 -1.55383 0
ltoes 6.12598 0 0
rfemur -53.5533 0.878554 9.43064
rtibia 70.2433 0 0
rfoot 8.72273 2.94818 0
rtoes -2.28071 0 0
lowerback 7.56461 1.59468 -0.23395
upperback 1.11995 2.17545 1.39752
thorax -3.0861 1.12341 1.46132
lowerneck -8.46083 -7.92608 -0.615324
upperneck 9.17174 -10.6584 1.46513
head 4.46621 -5.18524 -0.297245
lclavicle -4.04362e-15 6.37046e-15 0
lhumerus -49.28 -29.9619 113.982
lradius 55.3001 0 0
lwrist 7.75586 0 0
lhand 2.57312 0.908486 0
lfingers 7.12502 0 0
lthumb 28.017 28.4459 0
rclavicle -4.04362e-15 6.37046e-15 0
rhumerus -32.823 40.2178 -84.9637
rradius 96.0133 0 0
rwrist 7.78488 0 0
rhand 7.06506 -12.4231 0
rfingers 7.12502 0 0
rthumb 32.2941 -759.149 0
478
root 5.33106 16.3967 -6.6369 -136.289 53.9735 -141.44
lfemur -26.5155 -15.5506 -19.3648
ltibia 48.962 0 0
lfoot -21.2677 -1.83708 0
ltoes 6.32887 0 0
rfemur -53.8176 1.22351 9.23628
rtibia 69.9659 0 0
rfoot 8.78457 3.15057 0
rtoes -2.93259 0 0
lowerback 7.60285 1.52982 -0.255665
upperback 1.11957 2.08958 1.44075
thorax -3.10919 1.08096 1.52297
lowerneck -8.48726 -8.09099 -0.742566
upperneck 9.24354 -10.87 1.495
head 4.49616 -5.29026 -0.280573
lclavicle -3.31493e-15 6.34473e-15 0
lhumerus -49.2861 -30.1843 114.236
lradius 55.3652 0 0
lwrist 7.61119 0 0
lhand 2.8937 0.881807 0
lfingers 7.12502 0 0
lthumb 28.3245 28.3822 0
rclavicle -3.31493e-15 6.34473e-15 0
rhumerus -32.5946 40.6947 -84.8475
rradius 96.5569 0 0
rwrist 7.68917 0 0
rhand 7.39658 -12.3396 0
rfingers 7.12502 0 0
rthumb 32.6119 -759.025 0
479
root 5.34847 16.3966 -6.58949 -137.959 55.4162 -143.097
lfemur -26.4297 -15.747 -19.5197
ltibia 49.0516 0 0
lfoot -21.4577 -2.11362 0
ltoes 6.52963 0 0
rfemur -54.0778 1.56145 9.04688
rtibia 69.6907 0 0
rfoot 8.84543 3.35312 0
rtoes -3.57563 0 0
lowerback 7.6401 1.46537 -0.277706
upperback 1.11914 2.00421 1.48331
thorax -3.1317 1.03876 1.58408
lowerneck -8.51321 -8.25381 -0.86808
upperneck 9.31487 -11.079 1.52496
head 4.52587 -5.39396 -0.263993
lclavicle -2.60196e-15 6.31718e-15 0
lhumerus -49.289 -30.4045 114.483
lradius 55.4295 0 0
lwrist 7.47028 0 0
lhand 3.20807 0.855488 0
lfingers 7.12502 0 0
lthumb 28.6261 28.3196 0
rclavicle -2.60196e-15 6.31718e-15 0
rhumerus -32.3632 41.161 -84.7316
rradius 97.0958 0 0
rwrist 7.58738 0 0
rhand 7.71945 -12.2585 0
rfingers 7.12502 0 0
rthumb 32.9214 -758.904 0
480
root 5.36566 16.3964 -6.54247 -139.589 56.8378 -144.712
lfemur -26.3443 -15.9356 -19.6724
ltibia 49.1391 0 0
lfoot -21.646 -2.38313 0
ltoes 6.72803 0 0
rfemur -54.3337 1.89211 8.86261
rtibia 69.4179 0 0
rfoot 8.90525 3.55575 0
rtoes -4.20942 0 0
lowerback 7.67634 1.40137 -0.300058
upperback 1.11865 1.91939 1.52519
thorax -3.15363 0.996826 1.64462
lowerneck -8.53867 -8.41445 -0.991772
upperneck 9.38573 -11.2854 1.55499
head 4.55533 -5.49627 -0.24752
lclavicle -1.90554e-15 6.28789e-15 0
lhumerus -49.2887 -30.6225 114.724
lradius 55.4927 0 0
lwrist 7.33326 0 0
lhand 3.51592 0.829526 0
lfingers 7.12502 0 0
lthumb 28.9215 28.2581 0
rclavicle -1.90554e-15 6.28789e-15 0
rhumerus -32.1286 41.6161 -84.616
rradius 97.6297 0 0
rwrist 7.47937 0 0
rhand 8.03335 -12.1797 0
rfingers 7.12502 0 0
rthumb 33.2223 -758.786 0
481
root 5.38261 16.3963 -6.49583 -141.175 58.2374 -146.285
lfemur -26.2592 -16.1163 -19.8229
ltibia 49.2242 0 0
lfoot -21.8325 -2.64527 0
ltoes 6.92385 0 0
rfemur -54.5853 2.2152 8.68361
rtibia 69.1477 0 0
rfoot 8.96397 3.75839 0
rtoes -4.83357 0 0
lowerback 7.71152 1.33784 -0.322708
upperback 1.11811 1.83518 1.56635
thorax -3.17495 0.955185 1.70454
lowerneck -8.56362 -8.57277 -1.11355
upperneck 9.4561 -11.4889 1.58508
head 4.58452 -5.59712 -0.231169
lclavicle -1.22651e-15 6.25693e-15 0
lhumerus -49.285 -30.838 114.958
lradius 55.5549 0 0
lwrist 7.20025 0 0
lhand 3.81696 0.803919 0
lfingers 7.12502 0 0
lthumb 29.2103 28.1979 0
rclavicle -1.22651e-15 6.25693e-15 0
rhumerus -31.8909 42.0596 -84.5008
rradius 98.1583 0 0
rwrist 7.36501 0 0
rhand 8.33795 -12.1035 0
rfingers 7.12502 0 0
rthumb 33.5143 -758.672 0
482
root 5.3993 16.3962 -6.44956 -142.718 59.6137 -147.815
lfemur -26.1746 -16.2889 -19.971
ltibia 49.307 0 0
lfoot -22.0171 -2.89971 0
ltoes 7.11686 0 0
rfemur -54.8322 2.53046 8.51005
rtibia 68.8802 0 0
rfoot 9.02153 3.96097 0
rtoes -5.44765 0 0
lowerback 7.74559 1.27485 -0.345642
upperback 1.11749 1.75163 1.60678
thorax -3.19565 0.913866 1.76383
lowerneck -8.58804 -8.72867 -1.23331
upperneck 9.52595 -11.6894 1.61519
head 4.61344 -5.69643 -0.214955
lclavicle -5.65702e-16 6.22438e-15 0
lhumerus -49.2779 -31.0509 115.185
lradius 55.616 0 0
lwrist 7.07138 0 0
lhand 4.11088 0.778666 0
lfingers 7.12502 0 0
lthumb 29.4923 28.1388 0
rclavicle -5.65702e-16 6.22438e-15 0
rhumerus -31.6499 42.4909 -84.3859
rradius 98.6815 0 0
rwrist 7.24415 0 0
rhand 8.63291 -12.03 0
rfingers 7.12502 0 0
rthumb 33.797 -758.562 0
483
root 5.41571 16.3962 -6.40366 -144.215 60.9658 -149.299
lfemur -26.0905 -16.453 -20.1167
ltibia 49.3873 0 0
lfoot -22.1998 -3.14613 0
ltoes 7.30684 0 0
rfemur -55.0743 2.8376 8.34207
rtibia 68.6157 0 0
rfoot 9.07786 4.16342 0
rtoes -6.05126 0 0
lowerback 7.77851 1.21243 -0.368847
upperback 1.11679 1.6688 1.64646
thorax -3.21571 0.872897 1.82243
lowerneck -8.61193 -8.88202 -1.35097
upperneck 9.59528 -11.8867 1.64531
head 4.64207 -5.79412 -0.198892
lclavicle 7.60442e-17 6.19032e-15 0
lhumerus -49.2673 -31.2612 115.405
lradius 55.676 0 0
lwrist 6.94678 0 0
lhand 4.39739 0.753764 0
lfingers 7.12502 0 0
lthumb 29.7672 28.0809 0
rclavicle 7.60442e-17 6.19032e-15 0
rhumerus -31.4056 42.9095 -84.2714
rradius 99.1988 0 0
rwrist 7.11666 0 0
rhand 8.91792 -11.9591 0
rfingers 7.12502 0 0
rthumb 34.0702 -758.456 0
484
root 5.43183 16.3961 -6.35813 -145.665 62.2925 -150.738
lfemur -26.0069 -16.6086 -20.2597
ltibia 49.465 0 0
lfoot -22.3803 -3.38418 0
ltoes 7.49356 0 0
rfemur -55.3113 3.13636 8.17983
rtibia 68.3542 0 0
rfoot 9.1329 4.36566 0
rtoes -6.644 0 0
lowerback 7.81024 1.15061 -0.392308
upperback 1.116 1.58675 1.68536
thorax -3.23512 0.832304 1.88032
lowerneck -8.63525 -9.0327 -1.46643
upperneck 9.66407 -12.0808 1.6754
head 4.6704 -5.89012 -0.182995
lclavicle 6.97894e-16 6.15483e-15 0
lhumerus -49.2531 -31.4685 115.618
lradius 55.7348 0 0
lwrist 6.82656 0 0
lhand 4.67618 0.729212 0
lfingers 7.12502 0 0
lthumb 30.0346 28.0244 0
rclavicle 6.97894e-16 6.15483e-15 0
rhumerus -31.1579 43.315 -84.1574
rradius 99.71 0 0
rwrist 6.98238 0 0
rhand 9.19265 -11.891 0
rfingers 7.12502 0 0
rthumb 34.3335 -758.353 0
485
root 5.44764 16.3962 -6.31296 -147.067 63.593 -152.128
lfemur -25.9239 -16.7553 -20.4002
ltibia 49.5401 0 0
lfoot -22.5588 -3.61354 0
ltoes 7.67681 0 0
rfemur -55.5432 3.42646 8.02348
rtibia 68.0961 0 0
rfoot 9.18659 4.56763 0
rtoes -7.22545 0 0
lowerback 7.84074 1.08945 -0.416011
upperback 1.11511 1.50552 1.72346
thorax -3.25385 0.792117 1.93747
lowerneck -8.658 -9.18061 -1.57959
upperneck 9.7323 -12.2714 1.70545
head 4.69843 -5.98436 -0.167278
lclavicle 1.29901e-15 6.11798e-15 0
lhumerus -49.2353 -31.6728 115.822
lradius 55.7922 0 0
lwrist 6.71086 0 0
lhand 4.94696 0.705009 0
lfingers 7.12502 0 0
lthumb 30.2944 27.9692 0
rclavicle 1.29901e-15 6.11798e-15 0
rhumerus -30.9069 43.7068 -84.0439
rradius 100.215 0 0
rwrist 6.84118 0 0
rhand 9.45675 -11.8259 0
rfingers 7.12502 0 0
rthumb 34.5866 -758.255 0
486
root 5.46311 16.3962 -6.26815 -148.419 64.866 -153.47
lfemur -25.8416 -16.893 -20.5378
ltibia 49.6124 0 0
lfoot -22.7349 -3.83388 0
ltoes 7.85635 0 0
rfemur -55.7697 3.70762 7.8732
rtibia 67.8414 0 0
rfoot 9.23885 4.76925 0
rtoes -7.7952 0 0
lowerback 7.86996 1.02899 -0.439944
upperback 1.11412 1.42519 1.76073
thorax -3.27189 0.752361 1.99383
lowerneck -8.68017 -9.32563 -1.69036
upperneck 9.79996 -12.4585 1.73543
head 4.72613 -6.07677 -0.151757
lclavicle 1.87856e-15 6.07985e-15 0
lhumerus -49.2137 -31.8739 116.019
lradius 55.8484 0 0
lwrist 6.59979 0 0
lhand 5.20942 0.681151 0
lfingers 7.12502 0 0
lthumb 30.5463 27.9153 0
rclavicle 1.87856e-15 6.07985e-15 0
rhumerus -30.6523 44.0843 -83.9308
rradius 100.713 0 0
rwrist 6.69292 0 0
rhand 9.70992 -11.7638 0
rfingers 7.12502 0 0
rthumb 34.8293 -758.161 0
487
root 5.47823 16.3963 -6.22368 -149.72 66.1105 -154.761
lfemur -25.76 -17.0215 -20.6725
ltibia 49.6818 0 0
lfoot -22.9087 -4.04487 0
ltoes 8.03197 0 0
rfemur -55.9906 3.97957 7.72911
rtibia 67.5903 0 0
rfoot 9.28963 4.97044 0
rtoes -8.35285 0 0
lowerback 7.89786 0.969258 -0.464091
upperback 1.11301 1.34579 1.79717
thorax -3.28922 0.713064 2.04938
lowerneck -8.70172 -9.46763 -1.79866
upperneck 9.86702 -12.6418 1.76532
head 4.75351 -6.16726 -0.136447
lclavicle 2.43571e-15 6.04053e-15 0
lhumerus -49.1884 -32.0717 116.208
lradius 55.9032 0 0
lwrist 6.4935 0 0
lhand 5.46327 0.657637 0
lfingers 7.12502 0 0
lthumb 30.7898 27.8628 0
rclavicle 2.43571e-15 6.04053e-15 0
rhumerus -30.3942 44.4473 -83.8183
rradius 101.204 0 0
rwrist 6.53745 0 0
rhand 9.9518 -11.7048 0
rfingers 7.12502 0 0
rthumb 35.0611 -758.071 0
